<?xml version="1.0" encoding="UTF-8"?>
<svg width="25px" height="26px" viewBox="0 0 25 26" version="1.1" xmlns="http://www.w3.org/2000/svg" xmlns:xlink="http://www.w3.org/1999/xlink">
    <!-- Generator: Sketch 50.2 (55047) - http://www.bohemiancoding.com/sketch -->
    <title>home</title>
    <desc>Created with Sketch.</desc>
    <defs></defs>
    <g id="icons" stroke="none" stroke-width="1" fill="none" fill-rule="evenodd">
        <g id="home-52" transform="translate(0.000000, 1.000000)" stroke="#FFFFFF">
            <path d="M3.01724138,8.55862069 L3.01724138,22.7068966 C3.01724138,23.2591813 3.46495663,23.7068966 4.01724138,23.7068966 L8.9137931,23.7068966 C9.46607785,23.7068966 9.9137931,23.2591813 9.9137931,22.7068966 L9.9137931,17.8103448 C9.9137931,17.2580601 10.3615084,16.8103448 10.9137931,16.8103448 L14.0862069,16.8103448 C14.6384916,16.8103448 15.0862069,17.2580601 15.0862069,17.8103448 L15.0862069,22.7068966 C15.0862069,23.2591813 15.5339221,23.7068966 16.0862069,23.7068966 L20.9827586,23.7068966 C21.5350434,23.7068966 21.9827586,23.2591813 21.9827586,22.7068966 L21.9827586,8.55948276" id="Shape"></path>
            <path d="M3.87931034,7.81982759 L3.87931034,1.43103448 C3.87931034,0.878749733 4.32702559,0.431034483 4.87931034,0.431034483 L6.32758621,0.431034483 C6.87987096,0.431034483 7.32758621,0.878749733 7.32758621,1.43103448 L7.32758621,4.86293103" id="Shape"></path>
            <path d="M0.431034483,10.7758621 L11.8466815,0.988924587 C12.2211372,0.667893729 12.7737405,0.667835218 13.1482642,0.988786773 L24.5689655,10.7758621" id="Shape" stroke-linecap="square"></path>
            <rect id="Rectangle-path" stroke-linecap="square" x="9.9137931" y="8.18965517" width="5.17241379" height="4.31034483"></rect>
        </g>
    </g>
</svg>