<svg width="90" height="92" xmlns="http://www.w3.org/2000/svg"><g fill="#253655" fill-rule="nonzero"><path d="M44.286 25.714c7.09 0 12.857-5.768 12.857-12.857C57.143 5.77 51.376 0 44.286 0c-7.09 0-12.857 5.769-12.857 12.857 0 7.089 5.767 12.857 12.857 12.857zm0-22.857c5.513 0 10 4.486 10 10s-4.487 10-10 10-10-4.486-10-10 4.487-10 10-10zM44.606 58.714c7.09 0 12.857-5.768 12.857-12.857C57.463 38.77 51.696 33 44.606 33c-7.09 0-12.857 5.769-12.857 12.857 0 7.089 5.767 12.857 12.857 12.857zm0-22.857c5.513 0 10 4.486 10 10s-4.487 10-10 10-10-4.486-10-10 4.487-10 10-10z"/><path d="M46 54h-3v2.857h3zM35.857 47v-3H33v3zM55.857 47v-3H53v3zM46 35h-3v2.857h3zM44.694 49.814l-.003.004-5.687-4.074 1.68-2.311 3.725 2.668 5.284-5.184 2.02 2.02L44.7 49.82l-.005-.005zM28.376 73.579c.257-.438.261-.98.011-1.422L15.53 49.3c-.506-.9-1.984-.9-2.489 0L.184 72.157a1.429 1.429 0 0 0 1.245 2.129h25.714c.507 0 .977-.269 1.233-.707zM3.87 71.429l10.415-18.515L24.7 71.43H3.871zM90 50c0-.789-.64-1.429-1.429-1.429H65.714c-.789 0-1.428.64-1.428 1.429v22.857c0 .79.64 1.429 1.428 1.429h22.857c.79 0 1.429-.64 1.429-1.429V50zm-2.857 21.429h-20v-20h20v20zM44.286 81.429a34.157 34.157 0 0 1-18.607-5.485l-1.555 2.399a37.007 37.007 0 0 0 20.162 5.943c7.457 0 14.65-2.202 20.801-6.367l-1.601-2.366a34.109 34.109 0 0 1-19.2 5.876zM78.546 45.77l2.854-.111A37.109 37.109 0 0 0 60.629 13.78l-1.259 2.566A34.257 34.257 0 0 1 78.546 45.77zM10.109 49.887A34.881 34.881 0 0 1 10 47.143c0-13.184 7.357-24.986 19.2-30.797l-1.257-2.566c-12.83 6.297-20.8 19.08-20.8 33.363 0 .996.038 1.994.117 2.971l2.849-.227zM23.276 10.419l2.02 2.02 4.285-4.286a1.427 1.427 0 0 0 0-2.02l-4.285-4.286-2.02 2.02 1.847 1.847h-9.409v2.857h9.409l-1.847 1.848zM84.286 32.857c.379 0 .742-.15 1.01-.418l4.285-4.286-2.02-2.02-1.847 1.847v-9.409h-2.857v9.409l-1.847-1.847-2.02 2.02 4.286 4.286c.267.268.63.419 1.01.418zM13.276 77.561L8.99 81.847l2.02 2.02 1.847-1.847v9.409h2.857V82.02l1.847 1.847 2.02-2.02-4.285-4.286a1.427 1.427 0 0 0-2.02 0z"/></g></svg>