<svg width="90" height="90" xmlns="http://www.w3.org/2000/svg"><g fill="#253655" fill-rule="nonzero"><path d="M18 67.35h31.5v3H15v-42h3v39z"/><path d="M54.703 37.35a3.689 3.689 0 0 0-3.684 3.684c0 .568.139 1.098.37 1.579l-4.185 4.184a3.65 3.65 0 0 0-2.326-.85c-.969 0-1.845.383-2.503.996l-3.84-2.304c.13-.37.198-.757.203-1.148a3.689 3.689 0 0 0-3.685-3.685 3.689 3.689 0 0 0-3.684 3.685c0 .637.178 1.229.464 1.752l-3.558 4.448a3.62 3.62 0 0 0-.59-.06A3.689 3.689 0 0 0 24 53.316 3.689 3.689 0 0 0 27.684 57a3.689 3.689 0 0 0 3.685-3.684c0-.926-.355-1.763-.92-2.41l3.208-4.01c.43.178.901.279 1.396.279a3.65 3.65 0 0 0 1.968-.58l4.223 2.534c-.022.166-.05.33-.05.502a3.689 3.689 0 0 0 3.684 3.685 3.689 3.689 0 0 0 3.685-3.685c0-.223-.029-.44-.067-.653l4.628-4.628a3.65 3.65 0 0 0 1.58.369 3.689 3.689 0 0 0 3.684-3.685 3.689 3.689 0 0 0-3.685-3.684zM27.684 54.544a1.23 1.23 0 0 1 0-2.456 1.23 1.23 0 0 1 0 2.456zm6.141-11.053a1.23 1.23 0 1 1 2.459-.003 1.23 1.23 0 0 1-2.459.003zm11.053 7.368a1.23 1.23 0 0 1 0-2.456 1.23 1.23 0 0 1 0 2.456zm9.825-8.597a1.23 1.23 0 0 1 0-2.456 1.23 1.23 0 0 1 0 2.457zM41.576 37.35l1.174-1.174 1.174 1.174L45 36.274 43.826 35.1 45 33.926l-1.076-1.076-1.174 1.174-1.174-1.174-1.076 1.076 1.174 1.174-1.174 1.174zM49.076 32.85l1.174-1.174 1.174 1.174 1.076-1.076-1.174-1.174 1.174-1.174-1.076-1.076-1.174 1.174-1.174-1.174L48 29.426l1.174 1.174L48 31.774z"/><path d="M84.811 55.209c-.069-.078-.147-.146-.216-.222a21.613 21.613 0 0 0-1.198-1.233c-.137-.129-.278-.253-.417-.38a20.798 20.798 0 0 0-3.044-2.268c-.16-.097-.318-.198-.48-.292-.48-.275-.97-.53-1.47-.767-.15-.072-.297-.148-.448-.215a21.24 21.24 0 0 0-1.615-.636c-.137-.048-.27-.105-.409-.15a20.944 20.944 0 0 0-1.74-.479c-.124-.03-.247-.069-.373-.096a20.817 20.817 0 0 0-1.824-.297c-.121-.015-.239-.042-.36-.056A21.606 21.606 0 0 0 69 48c-.507 0-1.002.04-1.5.077V9A1.5 1.5 0 0 0 66 7.5h-6v-6A1.5 1.5 0 0 0 58.5 0h-57A1.5 1.5 0 0 0 0 1.5v72A1.5 1.5 0 0 0 1.5 75h6v6A1.5 1.5 0 0 0 9 82.5h43.938c.073.087.154.166.23.252.01.012.011.029.022.039.069.078.147.145.216.222.384.426.782.838 1.199 1.233.136.129.277.254.417.38a20.798 20.798 0 0 0 3.043 2.267c.16.098.318.198.48.293.478.276.969.528 1.47.766.15.073.297.149.449.216.526.236 1.066.443 1.615.636.136.049.27.105.408.15.569.187 1.15.341 1.74.479.124.03.248.069.373.096.599.127 1.208.222 1.825.297.121.015.238.042.36.056.725.075 1.465.118 2.215.118.75 0 1.49-.043 2.219-.12.121-.013.24-.04.36-.055.615-.077 1.225-.17 1.824-.297.125-.028.247-.067.373-.097.59-.138 1.17-.292 1.74-.478.138-.045.271-.102.408-.15.549-.192 1.089-.4 1.615-.636.152-.067.299-.145.449-.216.501-.238.992-.49 1.47-.766.162-.094.321-.194.48-.293a20.973 20.973 0 0 0 3.043-2.268c.14-.126.281-.249.418-.38.416-.394.814-.806 1.198-1.233.069-.076.147-.143.216-.221.01-.013.012-.028.022-.04C88.041 79.065 90 74.26 90 69s-1.959-10.063-5.166-13.752c-.01-.012-.012-.029-.023-.039zm-1.465 24.618c-1.593-.925-3.46-1.68-5.532-2.232.833-2.18 1.436-4.566 1.614-7.095h7.497a17.897 17.897 0 0 1-3.579 9.327zm-2.246 2.46c-.322.294-.652.58-.994.849-.108.086-.219.163-.328.246-.346.26-.697.511-1.058.744-.114.073-.233.141-.348.212-.368.226-.741.444-1.123.642-.122.063-.246.118-.37.178-.385.189-.773.37-1.171.531-.136.056-.276.1-.414.152-.39.147-.783.289-1.183.408-.175.05-.353.09-.529.136-.313.082-.628.163-.946.23a37.095 37.095 0 0 0 3.96-6.221c1.748.432 3.35 1.003 4.703 1.713l-.199.18zM63.891 86.25c-.4-.12-.794-.261-1.183-.408-.139-.051-.278-.097-.414-.151-.397-.163-.788-.34-1.172-.532-.123-.06-.248-.115-.369-.178-.382-.2-.757-.415-1.123-.642-.116-.07-.235-.138-.349-.212a18.367 18.367 0 0 1-1.057-.743c-.11-.083-.222-.162-.328-.246-.343-.269-.671-.556-.995-.85l-.197-.178c1.353-.708 2.954-1.281 4.703-1.713a37.095 37.095 0 0 0 3.96 6.22 18.498 18.498 0 0 1-.947-.229c-.177-.048-.356-.086-.529-.138zm-9.256-6.45a18.105 18.105 0 0 1-.672-.934c-.074-.113-.139-.23-.209-.344-.29-.459-.553-.93-.798-1.409-.167-.328-.333-.655-.48-.994-.072-.168-.132-.339-.2-.508-.14-.35-.27-.704-.388-1.061-.057-.174-.106-.351-.157-.526a17.095 17.095 0 0 1-.58-2.831c-.019-.163-.046-.327-.061-.492-.006-.066-.005-.135-.01-.201h7.497c.178 2.529.781 4.915 1.614 7.095-2.072.55-3.94 1.306-5.533 2.232a.129.129 0 0 1-.023-.027zm19.474-28.05c.4.12.794.261 1.184.408.137.051.277.097.413.151.398.161.787.343 1.172.532.123.06.248.115.369.178.382.198.754.417 1.124.642.115.07.234.138.348.212.361.233.712.484 1.057.744.11.082.222.162.329.245.341.269.67.555.994.85l.197.178c-1.354.708-2.954 1.281-4.703 1.713a37.095 37.095 0 0 0-3.96-6.22c.318.066.633.146.947.229.177.048.356.085.529.138zM69 76.5c-2.02 0-3.972.172-5.828.475-.808-1.994-1.418-4.178-1.609-6.475h14.873c-.191 2.296-.802 4.48-1.61 6.475A36.142 36.142 0 0 0 69 76.5zm4.494 3.309A36.008 36.008 0 0 1 69 86.293a36.063 36.063 0 0 1-4.494-6.484A33.448 33.448 0 0 1 69 79.5c1.54 0 3.046.112 4.494.309zM51.077 67.5c.007-.09.004-.181.013-.272.012-.128.036-.253.051-.38.056-.466.122-.929.212-1.383.019-.103.047-.203.069-.305.106-.49.228-.977.373-1.45l.047-.143a17.961 17.961 0 0 1 2.812-5.394c1.593.925 3.46 1.681 5.532 2.232-.833 2.18-1.435 4.566-1.614 7.095h-7.495zM65.34 51.416a37.092 37.092 0 0 0-3.935 6.189c-1.748-.432-3.35-1.004-4.703-1.713l.197-.179c.322-.294.652-.58.994-.849.108-.085.219-.163.328-.246.346-.26.697-.512 1.058-.744.114-.074.233-.141.348-.212.367-.226.741-.444 1.123-.642.122-.063.247-.118.37-.178.307-.151.619-.291.935-.425.224-.091.448-.183.675-.267.212-.079.426-.15.641-.22.375-.121.753-.24 1.14-.337l.213-.052c.203-.05.411-.083.617-.125zM61.566 67.5c.19-2.296.8-4.48 1.609-6.475 1.854.303 3.806.475 5.826.475 2.02 0 3.972-.172 5.828-.475.808 1.995 1.418 4.179 1.609 6.475H61.565zm7.435-9c-1.54 0-3.046-.112-4.494-.309A36.008 36.008 0 0 1 69 51.706a36.063 36.063 0 0 1 4.494 6.485A33.448 33.448 0 0 1 69 58.5zm10.427 9c-.179-2.529-.782-4.916-1.615-7.095 2.072-.552 3.94-1.306 5.532-2.232a17.884 17.884 0 0 1 3.58 9.327h-7.498zM3 72V3h54v4.5H21c-.033 0-.061.016-.095.02a1.464 1.464 0 0 0-.393.079c-.049.016-.097.03-.143.051-.158.07-.301.167-.425.286l-.006.005L7.941 19.939l-.006.008c-.12.124-.216.268-.286.425-.021.044-.034.093-.05.14a1.497 1.497 0 0 0-.081.4c-.002.03-.018.056-.018.088v51H3zm9.621-52.5l6.879-6.877V19.5h-6.879zm38.203 60H10.5v-57H21a1.5 1.5 0 0 0 1.5-1.5V10.5h42v37.993c-.093.021-.183.054-.276.077-.59.138-1.17.292-1.74.478-.138.045-.272.102-.408.15-.2.07-.398.143-.596.22-.169.064-.343.12-.511.187-.172.072-.337.153-.508.23l-.297.136c-.371.17-.739.345-1.097.536l-.195.109a20.776 20.776 0 0 0-9.898 12.069l-.051.166c-.167.551-.311 1.11-.433 1.679-.028.132-.06.263-.085.394-.1.515-.177 1.037-.24 1.565-.02.16-.047.318-.062.478A21.144 21.144 0 0 0 48 69c0 .648.039 1.29.097 1.927.012.135.024.27.04.404.07.636.161 1.267.289 1.888l.008.03c.15.718.337 1.427.562 2.125.189.59.399 1.175.64 1.749.029.066.062.128.09.194.291.658.612 1.302.962 1.93.048.085.088.17.136.253z"/><path d="M70.5 19.5h3v3h-3zM76.5 19.5h3v3h-3zM76.5 25.5h3v3h-3zM76.5 31.5h3v3h-3zM76.5 37.5h3v3h-3zM76.5 43.5h3v3h-3z"/></g></svg>