<svg width="90" height="87" xmlns="http://www.w3.org/2000/svg"><g fill="#253655" fill-rule="nonzero"><path d="M88.393 6.429H76.98A8.052 8.052 0 0 0 69.107 0H30.536C26.105 0 22.5 3.605 22.5 8.036v17.678h-3.214c-.888 0-1.607.72-1.607 1.607v6.429c0 .591.324 1.135.845 1.416L38.57 45.96v13.503a1.607 1.607 0 0 0 2.744 1.137l6.428-6.429a1.6 1.6 0 0 0 .471-1.136V45.96l20.048-10.795a1.61 1.61 0 0 0 .845-1.416v-6.429c0-.887-.72-1.607-1.607-1.607h-3.214v-6.428h17.678c4.431 0 8.036-3.605 8.036-8.036V8.036c0-.888-.72-1.607-1.607-1.607zm-22.5 26.36L45.845 43.584c-.52.28-.845.825-.845 1.416v7.37l-3.214 3.215V45a1.61 1.61 0 0 0-.846-1.416L20.893 32.79v-3.86h45v3.86zm-40.179-7.075V8.036a4.827 4.827 0 0 1 4.822-4.822h32.146c-.047.061-.08.134-.126.196-.094.134-.176.274-.262.413-.44.7-.764 1.468-.959 2.271-.037.151-.085.298-.114.452-.096.49-.146.99-.15 1.49v17.678H25.714zm38.572-9.643V8.036a4.827 4.827 0 0 1 4.821-4.822 4.827 4.827 0 0 1 4.822 4.822v3.214c0 .511.059 1.006.15 1.49.03.154.076.3.115.451.117.494.286.974.503 1.432.135.291.287.57.456.84.087.14.169.279.262.412.045.063.079.135.126.196H64.286zm22.5-4.821a4.827 4.827 0 0 1-4.822 4.821 4.827 4.827 0 0 1-4.821-4.821V9.643h9.643v1.607zM83.571 67.5a6.42 6.42 0 0 0-5.29 2.79l-7.626-3.812c.017-.196.06-.386.06-.585a6.435 6.435 0 0 0-6.43-6.429 6.435 6.435 0 0 0-6.428 6.429c0 .752.154 1.462.392 2.134l-8.18 6.816c-1.177-1.522-3-2.522-5.069-2.522a6.387 6.387 0 0 0-4.296 1.68l-8.62-4.31c.017-.195.059-.385.059-.584a6.435 6.435 0 0 0-6.429-6.428 6.435 6.435 0 0 0-6.428 6.428c0 .24.045.468.07.7l-8.664 5.775A6.38 6.38 0 0 0 6.43 73.93 6.435 6.435 0 0 0 0 80.357a6.435 6.435 0 0 0 6.429 6.429 6.435 6.435 0 0 0 6.428-6.429c0-.74-.15-1.438-.38-2.1l8.06-5.375a6.404 6.404 0 0 0 5.177 2.654 6.42 6.42 0 0 0 5.291-2.79l7.93 3.965a6.32 6.32 0 0 0-.364 2.039A6.435 6.435 0 0 0 45 85.179a6.435 6.435 0 0 0 6.429-6.429c0-.27-.047-.527-.08-.787l8.713-7.262a6.38 6.38 0 0 0 4.224 1.62 6.42 6.42 0 0 0 5.29-2.79l7.626 3.813c-.017.196-.06.385-.06.585a6.435 6.435 0 0 0 6.43 6.428A6.435 6.435 0 0 0 90 73.93a6.435 6.435 0 0 0-6.429-6.429zM6.43 83.571a3.218 3.218 0 0 1-3.215-3.214 3.218 3.218 0 0 1 3.215-3.214 3.218 3.218 0 0 1 3.214 3.214 3.218 3.218 0 0 1-3.214 3.214zm19.285-11.25a3.218 3.218 0 0 1-3.214-3.214 3.218 3.218 0 0 1 3.214-3.214 3.218 3.218 0 0 1 3.215 3.214 3.218 3.218 0 0 1-3.215 3.214zM45 81.964a3.218 3.218 0 0 1-3.214-3.214A3.218 3.218 0 0 1 45 75.536a3.218 3.218 0 0 1 3.214 3.214A3.218 3.218 0 0 1 45 81.964zm19.286-12.857a3.218 3.218 0 0 1-3.215-3.214 3.218 3.218 0 0 1 3.215-3.214 3.218 3.218 0 0 1 3.214 3.214 3.218 3.218 0 0 1-3.214 3.214zm19.285 8.036a3.218 3.218 0 0 1-3.214-3.214 3.218 3.218 0 0 1 3.214-3.215 3.218 3.218 0 0 1 3.215 3.215 3.218 3.218 0 0 1-3.215 3.214z"/><path d="M30.536 19.286h6.428V22.5h-6.428zM40.179 19.286h6.428V22.5H40.18zM49.821 19.286h6.429V22.5h-6.429zM30.536 12.857h6.428v3.214h-6.428zM40.179 12.857h6.428v3.214H40.18zM49.821 12.857h6.429v3.214h-6.429zM30.536 6.429h6.428v3.214h-6.428zM40.179 6.429h6.428v3.214H40.18zM49.821 6.429h6.429v3.214h-6.429zM54.643 48.214h3.214v3.215h-3.214zM61.071 48.214h3.215v3.215H61.07zM67.5 48.214h3.214v3.215H67.5zM16.071 48.214h3.215v3.215H16.07zM22.5 48.214h3.214v3.215H22.5zM28.929 48.214h3.214v3.215h-3.214z"/></g></svg>