<svg width="90" height="90" xmlns="http://www.w3.org/2000/svg"><g fill="#253655" fill-rule="nonzero"><path d="M7.5 90h18a1.5 1.5 0 0 0 1.5-1.5v-42a1.5 1.5 0 0 0-1.5-1.5h-9v-4.943l20.004-7.144A1.5 1.5 0 0 0 37.5 31.5V27H39c1.695 0 3.243-.587 4.5-1.539V45H39c-4.136 0-7.5 3.364-7.5 7.5v30c0 4.135 3.364 7.5 7.5 7.5h18a1.5 1.5 0 0 0 1.5-1.5v-42A1.5 1.5 0 0 0 57 45H46.5V25.461A7.422 7.422 0 0 0 51 27h1.5v4.5c0 .634.399 1.2.996 1.413L73.5 40.058V45h-3c-4.135 0-7.5 3.364-7.5 7.5v30c0 4.135 3.365 7.5 7.5 7.5h18a1.5 1.5 0 0 0 1.5-1.5v-42a1.5 1.5 0 0 0-1.5-1.5h-12v-6a1.5 1.5 0 0 0-.996-1.413L55.5 30.442V27H66c4.135 0 7.5-3.364 7.5-7.5a7.514 7.514 0 0 0-6.001-7.35L67.5 12c0-4.136-3.365-7.5-7.5-7.5a7.27 7.27 0 0 0-2.032.293A7.457 7.457 0 0 0 51 0c-2.462 0-4.632 1.209-6 3.046C43.632 1.21 41.462 0 39 0a7.457 7.457 0 0 0-6.968 4.793A7.262 7.262 0 0 0 30 4.5a7.509 7.509 0 0 0-7.498 7.65A7.514 7.514 0 0 0 16.5 19.5c0 4.136 3.364 7.5 7.5 7.5h10.5v3.442l-20.004 7.145A1.5 1.5 0 0 0 13.5 39v6h-6C3.364 45 0 48.364 0 52.5v30C0 86.635 3.365 90 7.5 90zm48-3H39a4.505 4.505 0 0 1-4.5-4.5V58.497c.057.044.124.075.183.117.124.089.257.165.387.246.39.243.8.45 1.227.618.288.112.585.201.89.276.142.036.279.08.424.107.45.084.912.139 1.389.139h16.5v27zm0-39v9H39a4.505 4.505 0 0 1-4.5-4.5c0-2.481 2.019-4.5 4.5-4.5h4.5v4.5h3V48h9zM87 87H70.5a4.505 4.505 0 0 1-4.5-4.5V58.497c.057.044.124.075.183.117.124.089.256.165.387.246.39.243.8.45 1.227.618.288.112.585.201.89.276.142.036.279.08.424.107.45.084.912.139 1.389.139H87v27zm0-39v9H70.5a4.505 4.505 0 0 1-4.5-4.5c0-2.481 2.019-4.5 4.5-4.5h3v4.5h3V48H87zM51 3c2.289 0 4.2 1.731 4.444 4.026a1.505 1.505 0 0 0 2.262 1.128A4.413 4.413 0 0 1 60 7.5c2.481 0 4.5 2.019 4.5 4.5 0 .339-.054.702-.17 1.139a1.497 1.497 0 0 0 1.51 1.88c.087-.001.169-.011.16-.019 2.481 0 4.5 2.019 4.5 4.5S68.481 24 66 24h-1.713c-.67-2.58-3-4.5-5.787-4.5v3a2.99 2.99 0 0 1 2.583 1.5h-8.448c.717-4.25 4.413-7.5 8.865-7.5v-3c-1.73 0-3.37.375-4.857 1.037C55.824 12.194 53.617 10.5 51 10.5v3c1.542 0 2.8 1.173 2.967 2.672a11.994 11.994 0 0 0-4.328 7.594A4.488 4.488 0 0 1 46.5 19.5v-12C46.5 5.019 48.519 3 51 3zM19.5 19.5c0-2.481 2.019-4.5 4.407-4.503.051.008.201.023.252.024a1.498 1.498 0 0 0 1.509-1.881A4.494 4.494 0 0 1 25.5 12c0-2.481 2.019-4.5 4.5-4.5.797 0 1.567.22 2.294.654a1.498 1.498 0 0 0 2.262-1.128A4.476 4.476 0 0 1 39 3c2.481 0 4.5 2.019 4.5 4.5v12a4.492 4.492 0 0 1-3.14 4.267 11.99 11.99 0 0 0-4.327-7.594c.166-1.5 1.425-2.673 2.967-2.673v-3c-2.617 0-4.824 1.695-5.643 4.037A11.913 11.913 0 0 0 28.5 13.5v3c4.45 0 8.147 3.25 8.865 7.5h-8.448a2.99 2.99 0 0 1 2.583-1.5v-3c-2.787 0-5.116 1.92-5.787 4.5H24a4.505 4.505 0 0 1-4.5-4.5zM24 87H7.5A4.505 4.505 0 0 1 3 82.5V58.497c.057.044.124.075.183.117.125.089.256.165.387.246.39.243.8.45 1.227.618.288.112.585.201.89.276.142.036.278.08.424.107.45.084.912.139 1.389.139H24v27zM7.5 48h6v4.5h3V48H24v9H7.5A4.505 4.505 0 0 1 3 52.5C3 50.019 5.019 48 7.5 48z"/><path d="M7.5 70.5A1.5 1.5 0 0 0 9 72h10.5a1.5 1.5 0 0 0 1.5-1.5v-6a1.5 1.5 0 0 0-1.5-1.5H9a1.5 1.5 0 0 0-1.5 1.5v6zm3-4.5H18v3h-7.5v-3zM7.5 75H21v3H7.5zM10.5 81H18v3h-7.5zM39 70.5a1.5 1.5 0 0 0 1.5 1.5H51a1.5 1.5 0 0 0 1.5-1.5v-6A1.5 1.5 0 0 0 51 63H40.5a1.5 1.5 0 0 0-1.5 1.5v6zm3-4.5h7.5v3H42v-3zM39 75h13.5v3H39zM42 81h7.5v3H42zM70.5 70.5A1.5 1.5 0 0 0 72 72h10.5a1.5 1.5 0 0 0 1.5-1.5v-6a1.5 1.5 0 0 0-1.5-1.5H72a1.5 1.5 0 0 0-1.5 1.5v6zm3-4.5H81v3h-7.5v-3zM70.5 75H84v3H70.5zM73.5 81H81v3h-7.5zM78 18h3v3h-3zM84 18h3v3h-3zM84 24h3v3h-3zM84 12h3v3h-3zM9 18h3v3H9zM3 18h3v3H3zM3 24h3v3H3zM3 12h3v3H3z"/></g></svg>