<svg width="90" height="90" xmlns="http://www.w3.org/2000/svg"><g fill="#253655" fill-rule="nonzero"><path d="M89.075 12.114a1.494 1.494 0 0 0-1.636.325L77.38 22.5H67.5v-9.879l10.06-10.06A1.5 1.5 0 0 0 76.5 0H66c-.398 0-.78.158-1.06.44l-10.5 10.5c-.282.28-.44.662-.44 1.06v12.879l-10.5 10.5-24.145-24.145-1.4-5.598a1.503 1.503 0 0 0-.928-1.042l-12-4.5a1.506 1.506 0 0 0-1.588.344l-3 3a1.506 1.506 0 0 0-.344 1.589l4.5 12a1.5 1.5 0 0 0 1.04.928l5.597 1.4L35.379 43.5 24.879 54H12c-.398 0-.78.158-1.06.44L.44 64.94C.158 65.22 0 65.602 0 66v10.5a1.503 1.503 0 0 0 2.56 1.06L12.622 67.5H22.5v9.879l-10.06 10.06A1.5 1.5 0 0 0 13.5 90H24c.398 0 .78-.157 1.06-.44l10.5-10.5c.282-.28.44-.662.44-1.06V65.121l7.5-7.5 4.94 4.94a1.499 1.499 0 0 0 2.12 0l1.94-1.94L54.879 63l-1.94 1.94a1.499 1.499 0 0 0 0 2.12l22.5 22.5a1.495 1.495 0 0 0 2.122 0l12-12a1.499 1.499 0 0 0 0-2.12l-22.5-22.5a1.499 1.499 0 0 0-2.122 0L63 54.879 60.621 52.5l1.94-1.94a1.499 1.499 0 0 0 0-2.12l-4.94-4.94 7.5-7.5H78c.397 0 .78-.157 1.06-.44l10.5-10.5c.282-.28.44-.662.44-1.06V13.5c0-.606-.366-1.153-.925-1.386zM13.06 16.939a1.505 1.505 0 0 0-.697-.394l-5.236-1.31L3.244 4.879l1.634-1.634 10.357 3.884 1.31 5.236c.066.264.202.505.394.696L41.38 37.5 37.5 41.379l-24.44-24.44zM59.379 49.5l-1.94 1.94a1.499 1.499 0 0 0 0 2.12l4.5 4.5a1.499 1.499 0 0 0 2.122 0L66 56.121 86.379 76.5 76.5 86.379 56.121 66l1.94-1.94a1.499 1.499 0 0 0 0-2.12l-4.5-4.5a1.499 1.499 0 0 0-2.121 0l-1.94 1.939-3.879-3.879 9.879-9.879 3.879 3.879zM87 23.379L77.379 33H64.5c-.398 0-.78.158-1.06.44l-9 9-12 12-9 9c-.282.28-.44.662-.44 1.06v12.879L23.379 87h-6.258l7.94-7.94c.281-.28.44-.662.439-1.06V66a1.5 1.5 0 0 0-1.5-1.5H12c-.398 0-.78.158-1.06.44L3 72.879v-6.258L12.621 57H25.5c.398 0 .78-.157 1.06-.44l12-12 6-6 12-12c.282-.28.44-.662.44-1.06V12.621L66.621 3h6.258l-7.94 7.94c-.281.28-.44.662-.439 1.06v12a1.5 1.5 0 0 0 1.5 1.5h12c.397 0 .78-.157 1.06-.44L87 17.122v6.258z"/><path d="M69.44 68.56l2.12-2.12 9 9-2.12 2.12zM63.44 62.56l2.12-2.12 3 3-2.12 2.12z"/></g></svg>