<svg width="44" height="44" xmlns="http://www.w3.org/2000/svg" xmlns:xlink="http://www.w3.org/1999/xlink"><defs><path d="M32 15.917c-.75.333-1.5.583-2.333.666.833-.5 1.5-1.333 1.833-2.25-.833.5-1.667.834-2.583 1a4.034 4.034 0 0 0-3-1.333 4.09 4.09 0 0 0-4.084 4.083c0 .334 0 .667.084.917-3.5-.167-6.5-1.833-8.5-4.333-.417.666-.584 1.333-.584 2.083 0 1.417.75 2.667 1.834 3.417-.667 0-1.334-.167-1.834-.5v.083c0 2 1.417 3.667 3.25 4-.333.083-.666.167-1.083.167-.25 0-.5 0-.75-.084.5 1.667 2 2.834 3.833 2.834-1.416 1.083-3.166 1.75-5.083 1.75-.333 0-.667 0-1-.084 1.833 1.167 4 1.834 6.25 1.834 7.583 0 11.667-6.25 11.667-11.667V18c.833-.583 1.5-1.333 2.083-2.083z" id="a"/></defs><g fill="none" fill-rule="evenodd"><circle fill="#0071BC" cx="22" cy="22" r="22"/><use fill="#FDFDFF" xlink:href="#a"/></g></svg>
